<?xml version="1.0" encoding="UTF-8" standalone="no"?>
<!-- Created with Inkscape (http://www.inkscape.org/) -->

<svg
   width="154.16867mm"
   height="33.85107mm"
   viewBox="0 0 154.16868 33.851072"
   version="1.1"
   id="svg1"
   xml:space="preserve"
   xmlns="http://www.w3.org/2000/svg"
   xmlns:svg="http://www.w3.org/2000/svg"><defs
     id="defs1" /><g
     id="g174"
     style="display:inline"
     transform="translate(-30.901198,-111.88577)"><g
       id="g165"
       style="display:inline"
       transform="rotate(111.6056,54.828628,130.08256)"><rect
         style="display:inline;fill:#ffffff;fill-opacity:1;stroke:none;stroke-width:0.236556"
         id="rect161"
         width="2.4758945"
         height="6.8116651"
         x="-75.981194"
         y="116.1396"
         transform="matrix(0.56407148,-0.82572596,0.8172728,0.57625096,0,0)" /><path
         style="display:inline;fill:none;stroke:#ffffff;stroke-width:0.1;stroke-dasharray:none;stroke-opacity:1"
         d="m 31.565217,114.00705 9.748019,6.74852 m 0.734754,0.5317 10.165899,7.05669"
         id="path161" /><path
         style="baseline-shift:baseline;display:inline;overflow:visible;opacity:1;vector-effect:none;fill:#ffffff;enable-background:accumulate;stop-color:#000000;stop-opacity:1"
         d="m 36.115234,111.92773 c -1.618617,0.1526 -3.208193,0.73112 -4.693359,1.89649 l -0.04297,0.0332 -0.02344,0.0488 c 0,0 -0.242068,0.5084 -0.371094,1.36523 -0.129026,0.85683 -0.152215,2.0796 0.259766,3.54883 0.823962,2.93847 3.387785,6.84643 10.248046,10.82227 l 0.134766,0.0762 L 41.75,129.625 c 0,0 2.097625,-1.59396 4.001953,-2.25195 l 0.308594,-0.10742 -0.201172,-0.25586 c -0.572874,-0.72782 -1.989573,-2.29379 -3.138672,-3.75196 -0.568321,-0.72119 -1.111248,-1.29121 -1.273437,-1.78125 -0.0763,-0.23046 0.0013,-0.37828 0.07617,-0.57812 0.150534,-0.13928 0.252729,-0.26099 0.486329,-0.26953 0.499817,-0.0183 1.214923,0.29125 2.074218,0.57226 1.736878,0.56803 3.761447,1.37542 4.498047,1.625 l 0.310547,0.10547 -0.0039,-0.32812 c -0.01009,-0.96557 0.189781,-2.4399 0.853515,-4.65235 l 0.04492,-0.15039 -0.123047,-0.0977 c -2.422117,-1.91381 -5.474726,-4.03774 -8.679687,-5.11524 -1.60248,-0.53875 -3.250523,-0.81275 -4.869141,-0.66016 z m 0.05273,0.45508 c 1.538009,-0.14326 3.110914,0.12105 4.667968,0.64453 3.071466,1.03263 6.041989,3.08244 8.429688,4.96094 -0.575699,1.97005 -0.767902,3.31944 -0.785156,4.30664 -0.791303,-0.28007 -2.590591,-0.99183 -4.251953,-1.53515 -0.829605,-0.27131 -1.551182,-0.6208 -2.236329,-0.59571 -0.429569,0.0157 -0.680943,0.28029 -0.833984,0.41797 l -0.04492,0.0391 -0.01953,0.0566 c -0.07063,0.19781 -0.225015,0.53114 -0.08789,0.94532 0.219249,0.66242 0.800511,1.22702 1.34961,1.92383 1.096562,1.39149 2.352993,2.78989 2.957031,3.5332 -1.81411,0.70466 -3.511846,1.93211 -3.707031,2.08008 -6.683685,-3.90601 -9.13415,-7.68347 -9.914063,-10.46485 -0.39266,-1.40033 -0.366701,-2.55454 -0.246094,-3.35547 0.115636,-0.76791 0.300345,-1.14758 0.316407,-1.18164 1.402625,-1.08558 2.88691,-1.63386 4.40625,-1.77539 z m 5.923828,8.6211 c -0.04601,0.006 -0.09942,0.0135 -0.16211,0.0586 -0.02819,0.0203 -0.0602,0.0432 -0.08621,0.0861 -0.02003,0.0367 -0.03696,0.0714 -0.0466,0.10521 -0.02097,0.0737 -0.01213,0.12586 -0.002,0.17187 0.02035,0.092 0.0586,0.16969 0.109375,0.26172 0.101558,0.18406 0.260139,0.41496 0.46289,0.6875 0.405504,0.54509 0.983884,1.24687 1.576172,1.94531 1.184577,1.39689 2.425782,2.77344 2.425782,2.77344 l 0.07422,0.082 0.109375,-0.006 c 0.394259,-0.0192 0.702954,0.0106 0.994141,0.0977 1.414111,0.42276 2.592746,1.56538 3.943359,2.4082 l 0.189453,0.11914 0.84961,-1.24414 0.916015,-1.33789 -0.183593,-0.13281 c -1.284854,-0.91856 -2.591428,-1.79932 -3.857422,-2.72656 -0.09316,-0.0682 -0.302312,-0.26777 -0.417969,-0.85352 l -0.02539,-0.12305 -0.115234,-0.0469 c 0,0 -1.684817,-0.68314 -3.369141,-1.3086 -0.842161,-0.31272 -1.684734,-0.61034 -2.322265,-0.80273 -0.318766,-0.0962 -0.583983,-0.16644 -0.78711,-0.19922 -0.101563,-0.0164 -0.183362,-0.0271 -0.27539,-0.0156 z m 0.234375,0.48242 c 0.16191,0.0282 0.400076,0.0867 0.695312,0.17578 0.618554,0.18667 1.455235,0.48384 2.292969,0.79492 1.644077,0.61051 3.231763,1.25447 3.292969,1.2793 0.145411,0.51168 0.357515,0.87209 0.521484,0.99219 1.214391,0.88944 2.456578,1.7325 3.675781,2.59961 l -0.658203,0.96093 -0.591797,0.86524 c -1.22233,-0.79915 -2.383948,-1.88881 -3.873046,-2.33399 -0.311699,-0.0932 -0.652425,-0.10924 -1.021485,-0.10156 -0.0541,-0.06 -1.211602,-1.34113 -2.363281,-2.69922 -0.589169,-0.69476 -1.1632,-1.393 -1.556641,-1.92187 -0.189491,-0.25472 -0.331377,-0.46511 -0.414062,-0.61133 z"
         id="path162" /><path
         id="path163"
         style="display:inline;fill:#ffffff;fill-opacity:1;stroke:none;stroke-width:0.1;stroke-dasharray:none"
         d="m 59.419112,131.56561 -1.585433,2.36627 c 1.181856,0.86669 3.803722,2.16756 4.319633,4.05143 0.738537,2.69681 2.207077,5.70935 5.286499,5.51594 0,0 -1.28192,-0.40911 -2.255676,-1.65364 -0.768511,-0.98221 -1.406724,-2.75238 -0.82889,-3.41892 0,0 1.257347,-0.31937 1.805058,0.42427 0.38155,0.51804 0.361847,1.64598 0.737939,2.45204 0.463507,0.9934 1.334899,1.64463 2.271179,2.13682 1.431357,0.75244 3.514092,0.25315 4.720642,0.43254 1.105065,0.16431 1.789942,1.30516 1.866553,1.86448 0,0 0.18545,-1.00515 -1.14825,-2.08928 -1.07088,-0.87049 -2.034897,-0.5189 -3.673161,-1.05161 -0.89781,-0.29193 -1.501007,-0.85636 -1.191658,-2.26395 0,0 0.277526,-0.39226 0.697115,-0.42323 0.702872,-0.0519 1.768341,0.46551 2.374015,2.04277 0,0 0.680321,-2.69934 -3.511414,-4.09846 -0.354925,-0.11847 -1.688154,-0.34921 -1.278991,-1.32808 0.289986,-0.57499 3.329968,-0.63286 4.218347,1.85363 -0.177678,-2.24306 -3.078973,-3.70538 -5.393986,-3.46955 -3.072,0.31294 -5.110298,-1.72286 -7.429521,-3.34347 z m 0.136943,1.59422 a 0.36400166,0.36400166 0 0 1 0.363802,0.3638 0.36400166,0.36400166 0 0 1 -0.363802,0.3638 0.36400166,0.36400166 0 0 1 -0.363802,-0.3638 0.36400166,0.36400166 0 0 1 0.363802,-0.3638 z" /><path
         style="fill:#ffffff;fill-opacity:1;stroke:none;stroke-width:0.0106008;stroke-opacity:1"
         d="m 41.360413,129.0912 c -4.775953,-2.84102 -7.918391,-5.94888 -9.300982,-9.19862 -0.763767,-1.79522 -0.961054,-3.633 -0.562234,-5.23741 0.05302,-0.2133 0.164336,-0.5412 0.181491,-0.53462 0.0079,0.003 2.134989,1.47484 4.726926,3.27072 2.591936,1.79585 4.713938,3.26608 4.715564,3.26715 0.0016,10e-4 0.007,0.12803 -0.01954,0.20237 -0.07062,0.19754 -0.05614,0.30989 -0.05644,0.47405 -8.01e-4,0.45154 0.196513,0.72608 0.955843,1.64464 0.121205,0.14662 0.389393,0.44627 0.535061,0.62852 0.586295,0.73357 0.948454,1.11617 2.007576,2.35634 0.894795,1.04776 0.89277,1.11443 0.882292,1.12426 -0.0048,0.005 -0.15738,0.0678 -0.245886,0.10364 -0.930648,0.37717 -2.22383,1.1165 -3.316255,1.89595 -0.116678,0.0832 -0.217865,0.15356 -0.22486,0.15625 -0.0069,0.003 -0.132349,-0.0663 -0.278562,-0.15326 z"
         id="path164" /><path
         style="fill:#ffffff;fill-opacity:1;stroke:none;stroke-width:0.0109032;stroke-opacity:1"
         d="m 51.597139,129.28219 c -0.279016,-0.19151 -0.555297,-0.34019 -0.957496,-0.63392 -0.716621,-0.52338 -0.975787,-0.72731 -1.304093,-0.93582 -0.703192,-0.44665 -1.39443,-0.76931 -1.928951,-0.87749 -0.220277,-0.0447 -0.295593,-0.0457 -0.566789,-0.0543 l -0.286808,-0.0179 -0.437221,-0.52344 c -1.456759,-1.744 -2.782632,-3.2592 -3.454527,-4.14555 -0.238718,-0.3149 -0.444104,-0.66624 -0.434189,-0.67621 0.0082,-0.008 10.048079,6.9952 10.044832,7.00685 -0.0051,0.0185 -0.61045,0.90471 -0.61972,0.90737 -0.0044,0.001 -0.06706,-0.0632 -0.107104,-0.0907 z"
         id="path165" /></g><g
       id="g170"
       style="display:inline"><rect
         style="display:inline;fill:#ffffff;fill-opacity:1;stroke:none;stroke-width:0.236556"
         id="rect165"
         width="2.4758945"
         height="6.8116651"
         x="-75.981194"
         y="116.1396"
         transform="matrix(0.56407148,-0.82572596,0.8172728,0.57625096,0,0)" /><path
         style="display:inline;fill:none;stroke:#ffffff;stroke-width:0.1;stroke-dasharray:none;stroke-opacity:1"
         d="m 31.565217,114.00705 9.748019,6.74852 m 0.734754,0.5317 10.165899,7.05669"
         id="path166" /><path
         style="baseline-shift:baseline;display:inline;overflow:visible;opacity:1;vector-effect:none;fill:#ffffff;enable-background:accumulate;stop-color:#000000;stop-opacity:1"
         d="m 36.115234,111.92773 c -1.618617,0.1526 -3.208193,0.73112 -4.693359,1.89649 l -0.04297,0.0332 -0.02344,0.0488 c 0,0 -0.242068,0.5084 -0.371094,1.36523 -0.129026,0.85683 -0.152215,2.0796 0.259766,3.54883 0.823962,2.93847 3.387785,6.84643 10.248046,10.82227 l 0.134766,0.0762 L 41.75,129.625 c 0,0 2.097625,-1.59396 4.001953,-2.25195 l 0.308594,-0.10742 -0.201172,-0.25586 c -0.572874,-0.72782 -1.989573,-2.29379 -3.138672,-3.75196 -0.568321,-0.72119 -1.111248,-1.29121 -1.273437,-1.78125 -0.0763,-0.23046 0.0013,-0.37828 0.07617,-0.57812 0.150534,-0.13928 0.252729,-0.26099 0.486329,-0.26953 0.499817,-0.0183 1.214923,0.29125 2.074218,0.57226 1.736878,0.56803 3.761447,1.37542 4.498047,1.625 l 0.310547,0.10547 -0.0039,-0.32812 c -0.01009,-0.96557 0.189781,-2.4399 0.853515,-4.65235 l 0.04492,-0.15039 -0.123047,-0.0977 c -2.422117,-1.91381 -5.474726,-4.03774 -8.679687,-5.11524 -1.60248,-0.53875 -3.250523,-0.81275 -4.869141,-0.66016 z m 0.05273,0.45508 c 1.538009,-0.14326 3.110914,0.12105 4.667968,0.64453 3.071466,1.03263 6.041989,3.08244 8.429688,4.96094 -0.575699,1.97005 -0.767902,3.31944 -0.785156,4.30664 -0.791303,-0.28007 -2.590591,-0.99183 -4.251953,-1.53515 -0.829605,-0.27131 -1.551182,-0.6208 -2.236329,-0.59571 -0.429569,0.0157 -0.680943,0.28029 -0.833984,0.41797 l -0.04492,0.0391 -0.01953,0.0566 c -0.07063,0.19781 -0.225015,0.53114 -0.08789,0.94532 0.219249,0.66242 0.800511,1.22702 1.34961,1.92383 1.096562,1.39149 2.352993,2.78989 2.957031,3.5332 -1.81411,0.70466 -3.511846,1.93211 -3.707031,2.08008 -6.683685,-3.90601 -9.13415,-7.68347 -9.914063,-10.46485 -0.39266,-1.40033 -0.366701,-2.55454 -0.246094,-3.35547 0.115636,-0.76791 0.300345,-1.14758 0.316407,-1.18164 1.402625,-1.08558 2.88691,-1.63386 4.40625,-1.77539 z m 5.923828,8.6211 c -0.04601,0.006 -0.09942,0.0135 -0.16211,0.0586 -0.02819,0.0203 -0.06239,0.0505 -0.08695,0.0869 -0.02743,0.0375 -0.03622,0.0706 -0.04586,0.1045 -0.02097,0.0737 -0.01213,0.12586 -0.002,0.17187 0.02035,0.092 0.0586,0.16969 0.109375,0.26172 0.101558,0.18406 0.260139,0.41496 0.46289,0.6875 0.405504,0.54509 0.983884,1.24687 1.576172,1.94531 1.184577,1.39689 2.425782,2.77344 2.425782,2.77344 l 0.07422,0.082 0.109375,-0.006 c 0.394259,-0.0192 0.702954,0.0106 0.994141,0.0977 1.414111,0.42276 2.592746,1.56538 3.943359,2.4082 l 0.189453,0.11914 0.84961,-1.24414 0.916015,-1.33789 -0.183593,-0.13281 c -1.284854,-0.91856 -2.591428,-1.79932 -3.857422,-2.72656 -0.09316,-0.0682 -0.302312,-0.26777 -0.417969,-0.85352 l -0.02539,-0.12305 -0.115234,-0.0469 c 0,0 -1.684817,-0.68314 -3.369141,-1.3086 -0.842161,-0.31272 -1.684734,-0.61034 -2.322265,-0.80273 -0.318766,-0.0962 -0.583983,-0.16644 -0.78711,-0.19922 -0.101563,-0.0164 -0.183362,-0.0271 -0.27539,-0.0156 z m 0.234375,0.48242 c 0.16191,0.0282 0.400076,0.0867 0.695312,0.17578 0.618554,0.18667 1.455235,0.48384 2.292969,0.79492 1.644077,0.61051 3.231763,1.25447 3.292969,1.2793 0.145411,0.51168 0.357515,0.87209 0.521484,0.99219 1.214391,0.88944 2.456578,1.7325 3.675781,2.59961 l -0.658203,0.96093 -0.591797,0.86524 c -1.22233,-0.79915 -2.383948,-1.88881 -3.873046,-2.33399 -0.311699,-0.0932 -0.652425,-0.10924 -1.021485,-0.10156 -0.0541,-0.06 -1.211602,-1.34113 -2.363281,-2.69922 -0.589169,-0.69476 -1.1632,-1.393 -1.556641,-1.92187 -0.189491,-0.25472 -0.331377,-0.46511 -0.414062,-0.61133 z"
         id="path167" /><path
         id="path168"
         style="display:inline;fill:#ffffff;fill-opacity:1;stroke:none;stroke-width:0.1;stroke-dasharray:none"
         d="m 59.419112,131.56561 -1.585433,2.36627 c 1.181856,0.86669 3.803722,2.16756 4.319633,4.05143 0.738537,2.69681 2.207077,5.70935 5.286499,5.51594 0,0 -1.28192,-0.40911 -2.255676,-1.65364 -0.768511,-0.98221 -1.406724,-2.75238 -0.82889,-3.41892 0,0 1.257347,-0.31937 1.805058,0.42427 0.38155,0.51804 0.361847,1.64598 0.737939,2.45204 0.463507,0.9934 1.334899,1.64463 2.271179,2.13682 1.431357,0.75244 3.514092,0.25315 4.720642,0.43254 1.105065,0.16431 1.789942,1.30516 1.866553,1.86448 0,0 0.18545,-1.00515 -1.14825,-2.08928 -1.07088,-0.87049 -2.034897,-0.5189 -3.673161,-1.05161 -0.89781,-0.29193 -1.501007,-0.85636 -1.191658,-2.26395 0,0 0.277526,-0.39226 0.697115,-0.42323 0.702872,-0.0519 1.768341,0.46551 2.374015,2.04277 0,0 0.680321,-2.69934 -3.511414,-4.09846 -0.354925,-0.11847 -1.688154,-0.34921 -1.278991,-1.32808 0.289986,-0.57499 3.329968,-0.63286 4.218347,1.85363 -0.177678,-2.24306 -3.078973,-3.70538 -5.393986,-3.46955 -3.072,0.31294 -5.110298,-1.72286 -7.429521,-3.34347 z m 0.136943,1.59422 a 0.36400166,0.36400166 0 0 1 0.363802,0.3638 0.36400166,0.36400166 0 0 1 -0.363802,0.3638 0.36400166,0.36400166 0 0 1 -0.363802,-0.3638 0.36400166,0.36400166 0 0 1 0.363802,-0.3638 z" /><path
         style="display:inline;opacity:1;fill:#ffffff;fill-opacity:1;stroke:none;stroke-width:0.0106008;stroke-opacity:1"
         d="m 41.360413,129.0912 c -4.775953,-2.84102 -7.918391,-5.94888 -9.300982,-9.19862 -0.763767,-1.79522 -0.961054,-3.633 -0.562234,-5.23741 0.05302,-0.2133 0.164336,-0.5412 0.181491,-0.53462 0.0079,0.003 2.134989,1.47484 4.726926,3.27072 2.591936,1.79585 4.713938,3.26608 4.715564,3.26715 0.0016,10e-4 -0.01879,0.0628 -0.04537,0.13714 -0.07062,0.19754 -0.04345,0.31194 -0.04375,0.4761 -8.01e-4,0.45154 0.189058,0.73851 0.948388,1.65707 0.121205,0.14662 0.422239,0.48185 0.567907,0.6641 0.586295,0.73357 0.939628,1.14086 1.99875,2.38103 0.894795,1.04776 0.912468,1.13505 0.90199,1.14488 -0.0048,0.005 -0.180499,0.0377 -0.269005,0.0735 -0.930648,0.37717 -2.22383,1.1165 -3.316255,1.89595 -0.116678,0.0832 -0.217865,0.15356 -0.22486,0.15625 -0.0069,0.003 -0.132349,-0.0663 -0.278562,-0.15326 z"
         id="path169" /><path
         style="display:inline;fill:#ffffff;fill-opacity:1;stroke:none;stroke-width:0.0109032;stroke-opacity:1"
         d="m 51.560012,129.26523 c -0.279016,-0.19151 -0.528761,-0.32259 -0.93096,-0.61632 -0.716621,-0.52338 -1.023196,-0.70185 -1.351502,-0.91036 -0.703192,-0.44665 -1.27045,-0.77026 -1.804971,-0.87844 -0.220277,-0.0447 -0.340442,-0.0667 -0.611638,-0.0753 l -0.363855,-0.0304 -0.479504,-0.51302 c -1.551658,-1.66014 -2.695328,-3.19497 -3.367223,-4.08132 -0.238718,-0.3149 -0.433209,-0.73255 -0.423294,-0.74252 0.0082,-0.008 10.046005,6.99958 10.042758,7.01123 -0.0051,0.0185 -0.60286,0.90673 -0.61213,0.90939 -0.0044,0.001 -0.04524,-0.0408 -0.08528,-0.0683 z"
         id="path170" /></g><g
       id="g172"
       style="font-size:13.3547px;font-family:'Imprint MT Shadow';-inkscape-font-specification:'Imprint MT Shadow, Normal';fill:#ffeeaa;stroke:#d4af37;stroke-width:0.996871"
       transform="scale(1.0858542,0.92093396)"
       aria-label="LANDSCAPE &#10;CRAFTSMEN"><path
         style="fill:#ffffff;stroke:none"
         d="m 82.04048,128.5027 v -0.35865 h 4.53199 v 0.35865 h -0.202146 q -0.508626,0 -0.782502,0.0913 -0.267355,0.0913 -0.378209,0.33908 -0.110855,0.24128 -0.110855,0.69121 v 6.38392 q 0,0.37168 0.123896,0.58035 0.130417,0.20215 0.462981,0.29996 0.332563,0.0978 0.939002,0.0978 0.515147,0 0.945523,-0.0848 0.430376,-0.0848 0.854231,-0.29996 0.423856,-0.21518 0.873794,-0.61296 0.449939,-0.39777 0.906398,-0.99117 h 0.599919 l -0.867273,2.34751 H 82.04048 v -0.35865 h 0.08477 q 0.586876,0 0.867273,-0.10433 0.280396,-0.11085 0.378209,-0.33908 0.104334,-0.23475 0.104334,-0.65209 v -6.16872 q 0,-0.48907 -0.09129,-0.73686 -0.08477,-0.24779 -0.397772,-0.36517 -0.30648,-0.11737 -0.945523,-0.11737 z m 1.643254,1.00421 v 6.67735 q 0,0.31952 -0.117376,0.49558 -0.110854,0.17607 -0.345605,0.30648 0.02608,0 0.110855,0.013 0.08477,0.013 0.110854,0.013 0.658606,0 0.658606,-0.95205 v -6.26001 q 0,-0.65861 -0.104333,-0.97813 -0.09781,-0.31952 -0.580356,-0.31952 h -0.195626 q 0.267355,0.1565 0.365168,0.33908 0.09781,0.18259 0.09781,0.66513 z m 4.421136,7.47941 h 1.193315 l 0.560793,-1.2846 q -0.371688,0.44341 -0.795543,0.75642 -0.417335,0.30648 -0.958565,0.52818 z m 9.376981,-1.24548 -0.730335,-1.86496 h -3.084362 l -0.430376,1.10854 q -0.169542,0.42386 -0.169542,0.88032 0,0.43689 0.273876,0.76946 0.280396,0.33256 0.775981,0.35212 v 0.35865 H 91.09794 v -0.35865 q 1.010731,-0.14998 1.630212,-1.74106 l 2.256214,-5.77748 q -0.176063,-0.30648 -0.371688,-0.41081 -0.195626,-0.11085 -0.573835,-0.14998 v -0.31952 l 1.565004,-0.53471 h 0.599918 l 3.019153,7.70112 q 0.260834,0.65209 0.521668,0.88684 0.260834,0.22823 0.795544,0.3456 v 0.35865 h -3.873385 v -0.35865 q 0.502106,-0.0522 0.749898,-0.1565 0.254313,-0.10433 0.254313,-0.40429 0,-0.26083 -0.189105,-0.68469 z m -3.658196,-2.2823 h 2.76484 l -1.388941,-3.51473 z m 4.251594,2.04103 -2.327944,-5.90137 q -0.169542,-0.44342 -0.352125,-0.626 -0.182584,-0.1891 -0.502106,-0.1891 -0.189105,0 -0.30648,0.0261 0.313001,0.12389 0.469501,0.3456 0.163022,0.22171 0.30648,0.5934 l 2.308381,5.90137 q 0.215188,0.52167 0.215188,0.81511 0,0.1891 -0.07173,0.27387 -0.07173,0.0848 -0.286918,0.24779 h 0.143459 q 0.30648,0 0.469501,-0.16302 0.169542,-0.16302 0.169542,-0.38473 0,-0.31952 -0.23475,-0.939 z m -6.279578,1.48675 h 1.252003 q -0.410814,-0.31952 -0.410814,-0.80206 0,-0.13694 0.01304,-0.21519 -0.176063,0.32604 -0.358647,0.55427 -0.176063,0.22823 -0.495584,0.46298 z m 15.904349,-8.48362 v -0.35865 h 3.48866 v 0.35865 q -0.4369,0.013 -0.76946,0.19562 -0.32604,0.18259 -0.51515,0.53471 -0.1891,0.34561 -0.1891,0.83467 l 0.12389,7.47942 h -0.40429 l -6.66431,-7.7859 0.0978,5.23624 q 0.013,0.48907 0.0782,0.82815 0.0652,0.33257 0.23475,0.58036 0.16955,0.24779 0.48255,0.39125 0.31952,0.14346 0.82162,0.1891 v 0.35865 h -3.46257 v -0.35865 q 0.67817,-0.0522 1.00421,-0.36516 0.33257,-0.313 0.41082,-0.77598 0.0782,-0.46951 0.0522,-1.17376 l -0.0913,-5.34057 q -0.37169,-0.4043 -0.72381,-0.61296 -0.35213,-0.21519 -0.73034,-0.21519 h -0.0782 v -0.35865 h 2.69311 l 5.87529,6.85341 -0.0913,-4.58415 q 0,-0.52819 -0.11086,-0.89336 -0.10433,-0.37169 -0.35864,-0.59992 -0.18259,-0.18258 -0.52819,-0.29996 -0.33909,-0.12389 -0.64557,-0.11737 z m 2.2823,0 h -1.42807 q 0.32605,0.11085 0.52819,0.30648 0.20867,0.19562 0.35213,0.53471 0.14998,-0.58036 0.54775,-0.84119 z m -1.02377,7.46637 -5.87529,-6.85341 q -0.18258,-0.23475 -0.4369,-0.42386 -0.24779,-0.1891 -0.70425,-0.1891 h -0.29344 q 0.36517,0.13042 0.56732,0.31952 0.20215,0.18258 0.56731,0.61948 l 6.69692,7.79894 q -0.007,-0.18911 -0.0196,-0.36517 -0.007,-0.18258 -0.0391,-0.26736 -0.0326,-0.0913 -0.1239,-0.2217 -0.0913,-0.13042 -0.33908,-0.41734 z m -7.13381,1.01725 h 1.3759 q -0.28692,-0.2217 -0.41082,-0.41081 -0.11737,-0.1891 -0.20214,-0.52819 -0.0848,0.30648 -0.26084,0.53471 -0.17606,0.22171 -0.5021,0.40429 z m 15.43485,0.35865 h -5.17104 v -0.35865 q 0.54775,-0.0196 0.82163,-0.0978 0.27388,-0.0848 0.38473,-0.30648 0.11738,-0.22171 0.11738,-0.65208 v -6.55998 q 0,-0.48254 -0.313,-0.65208 -0.31301,-0.16955 -1.01074,-0.21519 v -0.35865 h 5.38623 q 1.04985,0 1.93017,0.34561 0.88683,0.3456 1.51935,0.97812 0.63905,0.62601 0.98465,1.48676 0.34561,0.86075 0.34561,1.85192 0,0.97161 -0.35865,1.80627 -0.35212,0.82815 -1.01725,1.44111 -0.66513,0.61296 -1.59761,0.95205 -0.92596,0.33908 -2.02146,0.33908 z m -3.20174,-1.3759 v -6.02526 q 0,-0.77598 -0.14346,-1.08899 -0.14346,-0.31952 -0.74338,-0.32604 0.2804,0.14346 0.36517,0.35865 0.0913,0.20867 0.0913,0.64556 v 6.27306 q 0,0.40429 -0.0456,0.63252 -0.0456,0.22823 -0.13694,0.34561 -0.0913,0.11737 -0.27388,0.20214 0.49559,0 0.69121,-0.23475 0.19563,-0.24127 0.19563,-0.7825 z m 0.99769,-5.58185 v 5.26233 q 0,0.56731 0.0783,0.82815 0.0782,0.25431 0.37169,0.38473 0.29344,0.12389 0.95204,0.12389 0.71078,0 1.27157,-0.14345 0.56079,-0.14998 1.06942,-0.51515 0.59992,-0.43038 0.939,-0.92596 0.33908,-0.50211 0.48906,-1.13463 0.1565,-0.63904 0.1565,-1.42155 0,-2.32794 -1.36285,-3.48865 -0.54123,-0.46298 -1.19984,-0.65861 -0.65861,-0.19562 -1.55196,-0.19562 -0.61296,0 -0.86727,0.18258 -0.2478,0.17607 -0.29996,0.51515 -0.0457,0.33256 -0.0457,1.18679 z m 3.04524,6.5991 q 0.83467,-0.0848 1.49979,-0.57383 0.66513,-0.48906 1.04986,-1.38894 0.39125,-0.89988 0.39125,-2.15188 0,-0.89988 -0.1891,-1.64326 -0.18259,-0.74337 -0.54124,-1.29765 -0.35864,-0.56079 -0.87379,-0.89335 -0.29996,-0.20215 -0.626,-0.30648 -0.32604,-0.10434 -0.71077,-0.17606 2.49748,0.98464 2.49748,4.35592 0,1.01073 -0.26735,1.79324 -0.26084,0.7825 -0.82163,1.35633 -0.56079,0.56732 -1.4085,0.92596 z m 5.5688,-2.95394 h 0.43038 q 0.35865,1.03029 0.86075,1.73455 0.50863,0.69773 1.10203,1.03681 0.59991,0.33908 1.252,0.33908 0.81511,0 1.39546,-0.50862 0.58036,-0.50863 0.58036,-1.30417 0,-0.74338 -0.38473,-1.15419 -0.38473,-0.41734 -0.91944,-0.58036 -0.53471,-0.16954 -1.40851,-0.313 -0.87379,-0.14346 -1.23896,-0.26735 -0.56731,-0.19563 -0.96508,-0.53471 -0.39778,-0.34561 -0.60644,-0.82163 -0.20215,-0.48254 -0.20215,-1.03029 0,-0.52167 0.18258,-1.00422 0.18259,-0.48254 0.51515,-0.85423 0.33257,-0.37169 0.80859,-0.58687 0.48254,-0.21519 1.06942,-0.21519 0.42385,0 1.03681,0.1239 0.61948,0.11737 0.89988,0.11737 0.35212,0 0.66513,-0.1565 h 0.49558 l 0.2804,2.68007 h -0.45646 q -0.63905,-1.19984 -1.3433,-1.82584 -0.69773,-0.63252 -1.64325,-0.63252 -0.4695,0 -0.8738,0.22171 -0.40429,0.21519 -0.65208,0.59992 -0.24127,0.38473 -0.24127,0.84771 0,0.65208 0.44342,0.99769 0.44341,0.3456 1.31069,0.52166 0.87379,0.17607 1.55848,0.29996 0.69121,0.1239 1.0955,0.31953 0.74338,0.36516 1.15419,1.01073 0.41082,0.64556 0.41082,1.46067 0,0.7825 -0.37821,1.46067 -0.37821,0.67817 -1.0629,1.08898 -0.68469,0.40429 -1.52588,0.40429 -0.47602,0 -0.71729,-0.0717 -0.24128,-0.0717 -0.82815,-0.28039 -0.58688,-0.20867 -0.89988,-0.20867 -0.52167,0 -0.82815,0.39777 h -0.37169 z m 5.13191,-4.21899 -0.21518,-1.24548 q -0.21519,0.0717 -0.43038,0.0717 -0.23475,0 -0.50863,-0.0717 0.26084,0.16954 0.45646,0.37821 0.19563,0.20866 0.41082,0.5021 0.21518,0.29344 0.28691,0.36517 z m -4.91672,5.43187 v 1.74106 q 0.18911,-0.24779 0.34561,-0.31952 0.16302,-0.0717 0.49558,-0.0587 -0.21519,-0.25431 -0.313,-0.37168 -0.0913,-0.1239 -0.23475,-0.35865 -0.13694,-0.24127 -0.29344,-0.63252 z m 0,-5.3797 q -0.11085,0.49558 -0.11085,0.80206 0,0.34561 0.11737,0.69773 0.11738,0.34561 0.34561,0.65861 0.22823,0.30648 0.51515,0.5021 0.38473,0.26084 0.84771,0.37169 0.46298,0.10433 1.34981,0.25431 0.89336,0.14346 1.23244,0.2804 0.626,0.22823 0.97161,0.69773 0.35213,0.4695 0.35213,1.10203 0,0.4695 -0.26736,0.99116 0.53471,-0.55427 0.53471,-1.29764 0,-0.76946 -0.39777,-1.20636 -0.39125,-0.44342 -0.97813,-0.65209 -0.58035,-0.21518 -1.59109,-0.39125 -1.01073,-0.18258 -1.03681,-0.1891 -0.92596,-0.24127 -1.40851,-0.83467 -0.47602,-0.5934 -0.47602,-1.36938 0,-0.14346 -0.007,-0.24127 0,-0.0978 0.007,-0.17606 z m 15.57179,-1.8454 h 0.53471 v 2.88873 h -0.40429 q -0.30648,-0.63904 -0.66513,-1.12158 -0.35212,-0.48907 -0.74989,-0.80859 -0.39778,-0.32604 -0.83467,-0.48254 -0.4369,-0.16302 -0.93901,-0.16302 -0.67816,0 -1.23244,0.30648 -0.55427,0.29996 -0.94552,0.86727 -0.39125,0.56079 -0.61296,1.36938 -0.21519,0.80858 -0.21519,1.72802 0,1.28461 0.43038,2.2823 0.43037,0.99769 1.19983,1.55848 0.77599,0.55428 1.76063,0.55428 0.60644,0 1.16724,-0.19563 0.56731,-0.20215 1.08246,-0.60644 0.51514,-0.41081 0.95856,-1.01725 l 0.38473,0.21519 q -0.73685,1.0629 -1.76715,1.60413 -1.03029,0.53471 -2.37359,0.53471 -1.04333,0 -1.92365,-0.36517 -0.88031,-0.36517 -1.51936,-1.01725 -0.63904,-0.65861 -0.98464,-1.52588 -0.33909,-0.86728 -0.33909,-1.83236 0,-1.04334 0.37169,-1.93669 0.37169,-0.89988 1.02377,-1.54545 0.65861,-0.64556 1.51936,-0.99117 0.86727,-0.35212 1.83888,-0.35212 0.36517,0 0.67817,0.0587 0.31952,0.0522 0.75642,0.16954 0.43689,0.11737 0.58687,0.1565 0.1565,0.0326 0.35865,0.0326 0.51515,0 0.85423,-0.36516 z m -0.25431,1.64325 -0.0391,-1.10854 q -0.30648,0.13693 -0.64556,0.13693 -0.16302,0 -0.30648,-0.0261 0.33256,0.25431 0.55427,0.49558 0.22171,0.23475 0.4369,0.50211 z m -4.30376,-1.35634 q -1.01073,0.38473 -1.6563,0.91944 -0.37169,0.313 -0.6586,0.70425 -0.28692,0.39126 -0.48907,0.83467 -0.19562,0.44342 -0.30648,0.95857 -0.10433,0.50862 -0.10433,0.99769 0,1.17375 0.48254,2.17144 0.48255,0.99117 1.44111,1.64978 0.95857,0.65208 2.2823,0.80206 -0.86728,-0.22823 -1.58457,-0.67165 -0.71077,-0.44341 -1.21288,-1.0629 -0.49558,-0.61948 -0.74989,-1.34329 -0.2478,-0.73034 -0.2478,-1.51936 0,-0.65208 0.21519,-1.36938 0.21519,-0.71729 0.59992,-1.27156 0.44342,-0.63252 0.89988,-1.01725 0.46298,-0.38474 1.08898,-0.78251 z m 12.23311,7.43377 -0.73033,-1.86496 h -3.08437 l -0.43037,1.10854 q -0.16954,0.42386 -0.16954,0.88032 0,0.43689 0.27387,0.76946 0.2804,0.33256 0.77598,0.35212 v 0.35865 h -3.01915 v -0.35865 q 1.01073,-0.14998 1.63021,-1.74106 l 2.25621,-5.77748 q -0.17606,-0.30648 -0.37168,-0.41081 -0.19563,-0.11085 -0.57384,-0.14998 v -0.31952 l 1.56501,-0.53471 h 0.59991 l 3.01916,7.70112 q 0.26083,0.65209 0.52167,0.88684 0.26083,0.22823 0.79554,0.3456 v 0.35865 h -3.87339 v -0.35865 q 0.50211,-0.0522 0.7499,-0.1565 0.25431,-0.10433 0.25431,-0.40429 0,-0.26083 -0.1891,-0.68469 z m -3.6582,-2.2823 h 2.76484 l -1.38894,-3.51473 z m 4.2516,2.04103 -2.32795,-5.90137 q -0.16954,-0.44342 -0.35212,-0.626 -0.18259,-0.1891 -0.50211,-0.1891 -0.1891,0 -0.30648,0.0261 0.313,0.12389 0.4695,0.3456 0.16303,0.22171 0.30648,0.5934 l 2.30838,5.90137 q 0.21519,0.52167 0.21519,0.81511 0,0.1891 -0.0717,0.27387 -0.0717,0.0848 -0.28691,0.24779 h 0.14345 q 0.30648,0 0.46951,-0.16302 0.16954,-0.16302 0.16954,-0.38473 0,-0.31952 -0.23475,-0.939 z m -6.27958,1.48675 h 1.252 q -0.41081,-0.31952 -0.41081,-0.80206 0,-0.13694 0.013,-0.21519 -0.17606,0.32604 -0.35865,0.55427 -0.17606,0.22823 -0.49558,0.46298 z m 12.37657,-3.82121 v 2.76484 q 0,0.39125 0.11085,0.60644 0.11738,0.20866 0.313,0.29995 0.19563,0.0848 0.55428,0.11086 0.35864,0.0261 0.66512,0.0391 v 0.35865 h -4.74065 v -0.35865 q 0.52818,-0.013 0.78902,-0.0587 0.26735,-0.0456 0.41733,-0.17607 0.1565,-0.13041 0.20867,-0.33256 0.0587,-0.20867 0.0587,-0.56731 v -5.74487 q 0,-0.7173 -0.0652,-1.01725 -0.0587,-0.29996 -0.37169,-0.44342 -0.30648,-0.14346 -1.03681,-0.14346 v -0.35865 h 4.48634 q 0.29996,0 1.43459,0.10434 0.36517,0.0326 0.77598,0.21518 0.41733,0.18259 0.77598,0.50211 0.36517,0.313 0.58688,0.7499 0.22171,0.43037 0.22171,0.939 0,0.56731 -0.22823,1.02377 -0.22171,0.45646 -0.69121,0.78903 -0.46298,0.33256 -1.17376,0.51514 -0.70425,0.18259 -1.64325,0.18259 z m -1.41502,-3.13653 v 6.1296 q 0,0.61948 -0.47603,0.82814 h 0.16955 q 0.72381,0 0.72381,-0.68469 v -5.96657 q 0,-0.80207 -0.013,-1.04986 -0.007,-0.24779 -0.0848,-0.42385 -0.0717,-0.17607 -0.26736,-0.25432 -0.1891,-0.0848 -0.58687,-0.11737 0.26083,0.12389 0.36516,0.28039 0.10434,0.1565 0.13694,0.44342 0.0326,0.28692 0.0326,0.81511 z m 1.41502,2.77788 h 0.91292 q 0.82815,0 1.3759,-0.19563 0.54775,-0.20214 0.84119,-0.67164 0.29344,-0.47603 0.29344,-1.27157 0,-1.19331 -0.80207,-1.78671 -0.31952,-0.23475 -0.64556,-0.30648 -0.32605,-0.0717 -0.80859,-0.0717 -0.55427,0 -0.80206,0.1565 -0.24127,0.1565 -0.30648,0.4695 -0.0587,0.313 -0.0587,0.92596 z m 2.49749,-0.0717 q 0.7825,-0.11738 1.16723,-0.61948 0.38473,-0.50211 0.38473,-1.42155 0,-0.9716 -0.39125,-1.45415 -0.39125,-0.48906 -1.17376,-0.65208 0.37169,0.1891 0.63253,0.49558 0.26083,0.30648 0.39125,0.7173 0.13041,0.41081 0.13041,0.89335 0,1.55197 -1.14114,2.04103 z m 6.5991,0.0587 v 2.86917 q 0,0.47602 0.0652,0.74338 0.0717,0.26083 0.25431,0.39125 0.18258,0.1239 0.52167,0.1565 0.3456,0.0326 0.939,0.0326 0.71729,0 1.28461,-0.21518 0.57383,-0.22171 1.07594,-0.64557 0.50863,-0.43037 1.10854,-1.14115 h 0.52167 l -0.81511,2.36055 h -8.02716 v -0.35865 q 0.58035,-0.013 0.88031,-0.0978 0.30648,-0.0913 0.43038,-0.29344 0.13042,-0.20866 0.13042,-0.58687 v -6.44912 q 0,-0.45646 -0.11738,-0.66513 -0.11737,-0.20867 -0.39777,-0.2804 -0.2804,-0.0782 -0.92596,-0.11085 v -0.35865 h 7.70764 l 0.78903,2.08015 h -0.46951 q -0.3782,-0.47602 -0.92596,-0.86075 -0.54123,-0.39125 -1.21939,-0.626 -0.67165,-0.23475 -1.42155,-0.23475 -0.5934,0 -0.89336,0.13042 -0.29996,0.12389 -0.39777,0.35212 -0.0978,0.22823 -0.0978,0.59992 v 2.84309 h 1.31069 q 1.71498,0 1.73455,-1.57152 h 0.45646 v 3.45605 h -0.4043 q -0.0783,-0.79555 -0.44994,-1.15419 -0.36516,-0.36517 -1.12158,-0.36517 z m 4.30376,4.1929 0.44994,-1.13462 q -0.38473,0.41733 -0.69773,0.626 -0.313,0.20214 -0.88684,0.50862 z m -1.33677,-3.76905 v -1.27808 q -0.25432,0.43689 -0.92596,0.63904 0.35864,0.0978 0.56731,0.23475 0.20867,0.13694 0.35865,0.40429 z m 1.05637,-4.71457 h -1.18027 q 0.48906,0.16302 0.86727,0.39125 0.37821,0.22823 0.80207,0.54775 z m -5.43839,1.10854 v 6.30566 q 0,0.47603 -0.11085,0.69774 -0.11085,0.2217 -0.33256,0.37168 0.54123,-0.007 0.69773,-0.28039 0.16302,-0.2804 0.16302,-0.89988 v -6.31218 q 0,-0.55427 -0.18911,-0.73034 -0.1891,-0.18258 -0.67164,-0.19562 0.24127,0.13041 0.33908,0.35212 0.10433,0.21519 0.10433,0.69121 z"
         id="path171" /><path
         style="fill:#ffffff;stroke:none"
         d="m 90.217625,144.71353 h 0.53471 v 2.88874 h -0.404293 q -0.30648,-0.63905 -0.665127,-1.12159 -0.352125,-0.48906 -0.749897,-0.80858 -0.397772,-0.32605 -0.834669,-0.48255 -0.436897,-0.16302 -0.939002,-0.16302 -0.678169,0 -1.232441,0.30648 -0.554272,0.29996 -0.945523,0.86727 -0.391251,0.5608 -0.61296,1.36938 -0.215188,0.80859 -0.215188,1.72803 0,1.28461 0.430376,2.2823 0.430376,0.99769 1.199836,1.55848 0.775981,0.55427 1.76063,0.55427 0.606439,0 1.167232,-0.19562 0.567314,-0.20215 1.082461,-0.60644 0.515147,-0.41082 0.958565,-1.01726 l 0.38473,0.21519 q -0.736856,1.0629 -1.76715,1.60413 -1.030295,0.53471 -2.37359,0.53471 -1.043336,0 -1.92365,-0.36517 -0.880315,-0.36516 -1.519358,-1.01725 -0.639043,-0.65861 -0.984649,-1.52588 -0.339084,-0.86727 -0.339084,-1.83236 0,-1.04333 0.371689,-1.93669 0.371688,-0.89988 1.023773,-1.54544 0.658606,-0.64557 1.519358,-0.99117 0.867273,-0.35213 1.83888,-0.35213 0.365167,0 0.678168,0.0587 0.319522,0.0522 0.756419,0.16954 0.436897,0.11738 0.586876,0.1565 0.1565,0.0326 0.358647,0.0326 0.515147,0 0.854231,-0.36517 z m -0.254313,1.64325 -0.03912,-1.10854 q -0.30648,0.13694 -0.645564,0.13694 -0.163021,0 -0.30648,-0.0261 0.332563,0.25432 0.554272,0.49559 0.221709,0.23475 0.436897,0.5021 z m -4.303761,-1.35633 q -1.010731,0.38473 -1.656296,0.91944 -0.371688,0.313 -0.658605,0.70425 -0.286918,0.39125 -0.489064,0.83467 -0.195626,0.44342 -0.30648,0.95856 -0.104334,0.50863 -0.104334,0.99769 0,1.17376 0.482543,2.17145 0.482543,0.99117 1.441108,1.64977 0.958565,0.65209 2.282297,0.80207 -0.867273,-0.22823 -1.584566,-0.67165 -0.710773,-0.44342 -1.212878,-1.0629 -0.495585,-0.61948 -0.749898,-1.3433 -0.247792,-0.73033 -0.247792,-1.51935 0,-0.65209 0.215188,-1.36938 0.215188,-0.7173 0.599918,-1.27157 0.443418,-0.63252 0.899877,-1.01725 0.462981,-0.38473 1.088982,-0.7825 z m 10.609422,9.0379 h -4.518949 v -0.35865 q 0.632523,-0.013 0.939003,-0.0978 0.30648,-0.0913 0.417334,-0.31953 0.117375,-0.22823 0.117375,-0.71729 v -6.09047 q 0,-0.52167 -0.09781,-0.77598 -0.09781,-0.25432 -0.404293,-0.35865 -0.299959,-0.10433 -0.971607,-0.1239 v -0.35864 h 5.144951 q 0.971606,0 1.695421,0.33908 0.730335,0.33256 1.095502,0.89336 0.37169,0.55427 0.37169,1.19983 0,0.42386 -0.169543,0.82815 -0.169542,0.39777 -0.489064,0.72382 -0.319522,0.32604 -0.775981,0.56079 -0.449939,0.22823 -1.049857,0.32604 0.449939,0.44994 1.108545,1.27157 l 0.645564,0.76294 q 0.05217,0.0587 0.130417,0.14998 0.07825,0.0848 0.202146,0.22171 0.313001,0.3782 0.528183,0.626 0.21519,0.24127 0.42386,0.43689 0.21519,0.19563 0.41733,0.31953 0.20215,0.11737 0.43038,0.18258 v 0.35865 h -1.22592 q -0.417333,0 -0.789021,-0.18259 -0.371688,-0.1891 -0.717293,-0.52819 -0.339085,-0.33908 -0.775982,-0.89335 l -0.912919,-1.16071 q -0.632522,-0.82163 -0.945523,-1.13463 -0.30648,-0.31952 -0.534709,-0.31952 h -0.723815 v 2.76484 q 0,0.41081 0.104334,0.64556 0.104333,0.23475 0.456459,0.33908 0.189105,0.0522 0.462981,0.0848 0.273875,0.0326 0.410813,0.0261 z m -2.836569,-7.63592 v 6.43608 q 0,0.61296 -0.449939,0.84119 0.854231,-0.0196 0.854231,-0.65861 v -6.57953 q 0,-0.50211 -0.05869,-0.75642 -0.05217,-0.26084 -0.254314,-0.38473 -0.195625,-0.1239 -0.606439,-0.10434 0.339085,0.14998 0.423856,0.39778 0.09129,0.24127 0.09129,0.80858 z m 1.401982,0.11738 v 2.9409 h 1.056378 q 0.53471,0 1.056378,-0.16954 0.521668,-0.17607 0.789022,-0.4369 0.53471,-0.50211 0.53471,-1.5324 0,-1.2194 -0.828148,-1.79323 -0.293438,-0.20215 -0.61296,-0.26736 -0.319521,-0.0652 -0.815106,-0.0652 -0.502105,0 -0.762939,0.13694 -0.254313,0.13042 -0.339085,0.40429 -0.07825,0.26736 -0.07825,0.78251 z m 1.701942,3.29955 h -0.53471 q 0.234751,0.17606 0.541231,0.52818 0.313001,0.35213 0.782502,0.95205 0.469501,0.59992 0.945523,1.2194 0.436897,0.55427 0.808585,0.85423 0.371689,0.29344 0.658606,0.37821 0.286915,0.0848 0.612965,0.0978 -0.404298,-0.19562 -0.775986,-0.53471 -0.371688,-0.3456 -0.802065,-0.86727 -0.423855,-0.52819 -0.880314,-1.10855 -0.449939,-0.58035 -0.932482,-1.0955 -0.06521,-0.0913 -0.163021,-0.20215 -0.09129,-0.11737 -0.260834,-0.2217 z m 0.573835,-0.39125 q 0.873794,-0.11086 1.343295,-0.65209 0.469501,-0.54123 0.469501,-1.46719 0,-0.89988 -0.417334,-1.42807 -0.417335,-0.53471 -1.186795,-0.64556 0.586876,0.29996 0.873794,0.80858 0.293438,0.50211 0.293438,1.3433 0,0.88683 -0.345605,1.33025 -0.339084,0.44342 -1.030294,0.71078 z m 11.078927,3.00611 -0.73034,-1.86497 h -3.08436 l -0.43038,1.10855 q -0.16954,0.42385 -0.16954,0.88031 0,0.4369 0.27388,0.76946 0.28039,0.33257 0.77598,0.35213 v 0.35865 h -3.01915 v -0.35865 q 1.01073,-0.14998 1.63021,-1.74107 l 2.25621,-5.77747 q -0.17606,-0.30648 -0.37169,-0.41081 -0.19562,-0.11086 -0.57383,-0.14998 v -0.31953 l 1.565,-0.5347 h 0.59992 l 3.01915,7.70112 q 0.26084,0.65208 0.52167,0.88683 0.26084,0.22823 0.79555,0.34561 v 0.35865 h -3.87339 v -0.35865 q 0.50211,-0.0522 0.7499,-0.1565 0.25431,-0.10433 0.25431,-0.40429 0,-0.26084 -0.1891,-0.68469 z m -3.6582,-2.2823 h 2.76484 l -1.38894,-3.51474 z m 4.2516,2.04103 -2.32795,-5.90137 q -0.16954,-0.44342 -0.35212,-0.62601 -0.18259,-0.1891 -0.50211,-0.1891 -0.1891,0 -0.30648,0.0261 0.313,0.1239 0.4695,0.34561 0.16302,0.22171 0.30648,0.5934 l 2.30838,5.90136 q 0.21519,0.52167 0.21519,0.81511 0,0.18911 -0.0717,0.27388 -0.0717,0.0848 -0.28692,0.24779 h 0.14346 q 0.30648,0 0.4695,-0.16302 0.16955,-0.16302 0.16955,-0.38473 0,-0.31952 -0.23475,-0.939 z m -6.27958,1.48675 h 1.252 q -0.41081,-0.31952 -0.41081,-0.80207 0,-0.13693 0.013,-0.21518 -0.17606,0.32604 -0.35865,0.55427 -0.17606,0.22823 -0.49558,0.46298 z m 9.33785,-8.84227 h 7.59679 l 0.80207,2.11275 h -0.48255 q -0.39125,-0.44994 -0.87379,-0.80858 -0.48254,-0.36517 -0.95205,-0.58688 -0.4695,-0.22171 -0.88683,-0.29344 -0.37821,-0.0652 -0.77598,-0.0652 -0.65861,0 -0.939,0.13042 -0.27388,0.1239 -0.34561,0.44994 -0.0717,0.31952 -0.0717,1.08898 v 2.24317 h 1.1868 q 0.89987,0 1.35633,-0.39777 0.46298,-0.40429 0.48255,-1.23244 h 0.4695 v 3.48866 h -0.4695 q -0.0587,-0.65861 -0.23475,-0.96509 -0.17607,-0.313 -0.5608,-0.41733 -0.37821,-0.11086 -1.0955,-0.11086 h -1.13463 v 3.1887 q 0,0.56731 0.313,0.79554 0.31952,0.22171 1.11507,0.22171 h 0.16954 v 0.35865 h -4.6298 v -0.35865 q 0.63904,-0.0196 0.92596,-0.13042 0.28691,-0.11085 0.37821,-0.37169 0.0978,-0.26735 0.0978,-0.80858 v -5.69922 -0.31301 q 0,-0.626 -0.23475,-0.89987 -0.22823,-0.27388 -1.03682,-0.27388 -0.0456,0 -0.0848,0.007 -0.0391,0 -0.0848,0.007 z m 7.59679,1.4411 -0.63904,-1.08246 h -1.2194 q 0.40429,0.13042 0.71729,0.29344 0.313,0.1565 0.53471,0.31952 0.22823,0.16302 0.60644,0.4695 z m -1.55196,3.64516 v -1.3759 q -0.13694,0.26736 -0.33909,0.41081 -0.19562,0.14346 -0.59339,0.28692 0.39125,0.0978 0.60644,0.25431 0.22171,0.14998 0.32604,0.42386 z m -3.97772,2.91482 v -6.14264 q 0,-0.67165 -0.0457,-0.97161 -0.0391,-0.29996 -0.23475,-0.43689 -0.19562,-0.13694 -0.65208,-0.0913 0.3456,0.1239 0.43038,0.35213 0.0848,0.22823 0.0848,0.88031 v 6.10352 q 0,0.40429 -0.0326,0.59992 -0.0261,0.19562 -0.11737,0.313 -0.0913,0.11085 -0.313,0.23475 0.48254,0.007 0.67816,-0.18258 0.20215,-0.19563 0.20215,-0.65861 z m 7.26423,-8.00108 h 8.288 l 0.4695,2.15188 h -0.4695 q -0.50211,-0.84119 -1.04986,-1.23244 -0.54775,-0.39125 -1.03681,-0.4695 -0.48255,-0.0782 -1.26505,-0.0913 v 7.41421 q 0,0.43038 0.13694,0.65861 0.13694,0.2217 0.44994,0.30648 0.313,0.0848 0.87379,0.10433 v 0.35865 h -4.57111 v -0.35865 q 0.56731,-0.013 0.86727,-0.0848 0.30648,-0.0782 0.45646,-0.313 0.1565,-0.24127 0.1565,-0.7499 v -7.33596 q -0.70425,0.007 -1.22592,0.14346 -0.52167,0.13042 -0.87379,0.35865 -0.35213,0.22823 -0.58688,0.48906 -0.22823,0.25432 -0.67817,0.80207 h -0.39777 z m 8.02064,1.40198 -0.29343,-1.04334 h -1.22592 q 0.49558,0.1565 0.82814,0.4043 0.33257,0.24779 0.69121,0.63904 z m -4.08205,6.14264 v -6.41 q 0,-0.3782 -0.0913,-0.56731 -0.0848,-0.1891 -0.32604,-0.20867 v 7.41421 q 0,0.40429 -0.0978,0.64556 -0.0978,0.24128 -0.36516,0.42386 h 0.14346 q 0.47602,0 0.60643,-0.29996 0.13042,-0.29996 0.13042,-0.99769 z m -2.72571,-7.18598 h -1.05638 l -0.25431,1.10855 q 0.33256,-0.4369 0.58035,-0.64557 0.24779,-0.21518 0.73034,-0.46298 z m 8.65317,5.52968 h 0.43037 q 0.35865,1.0303 0.86075,1.73455 0.50863,0.69773 1.10203,1.03682 0.59992,0.33908 1.252,0.33908 0.81511,0 1.39546,-0.50863 0.58036,-0.50862 0.58036,-1.30417 0,-0.74337 -0.38473,-1.15419 -0.38473,-0.41733 -0.91944,-0.58035 -0.53471,-0.16954 -1.40851,-0.313 -0.87379,-0.14346 -1.23896,-0.26736 -0.56731,-0.19562 -0.96508,-0.53471 -0.39777,-0.3456 -0.60644,-0.82163 -0.20215,-0.48254 -0.20215,-1.03029 0,-0.52167 0.18259,-1.00421 0.18258,-0.48254 0.51514,-0.85423 0.33257,-0.37169 0.80859,-0.58688 0.48254,-0.21519 1.06942,-0.21519 0.42385,0 1.03681,0.1239 0.61948,0.11738 0.89988,0.11738 0.35213,0 0.66513,-0.1565 h 0.49558 l 0.2804,2.68006 h -0.45646 q -0.63905,-1.19983 -1.3433,-1.82583 -0.69773,-0.63253 -1.64325,-0.63253 -0.4695,0 -0.87379,0.22171 -0.4043,0.21519 -0.65209,0.59992 -0.24127,0.38473 -0.24127,0.84771 0,0.65209 0.44342,0.99769 0.44341,0.34561 1.31069,0.52167 0.87379,0.17606 1.55848,0.29996 0.69121,0.12389 1.0955,0.31952 0.74338,0.36517 1.15419,1.01073 0.41082,0.64557 0.41082,1.46067 0,0.7825 -0.37821,1.46067 -0.37821,0.67817 -1.0629,1.08898 -0.68469,0.4043 -1.52588,0.4043 -0.47602,0 -0.71729,-0.0717 -0.24127,-0.0717 -0.82815,-0.2804 -0.58688,-0.20867 -0.89988,-0.20867 -0.52167,0 -0.82815,0.39778 h -0.37168 z m 5.1319,-4.21899 -0.21518,-1.24548 q -0.21519,0.0717 -0.43038,0.0717 -0.23475,0 -0.50863,-0.0717 0.26084,0.16954 0.45646,0.37821 0.19563,0.20867 0.41082,0.50211 0.21518,0.29344 0.28691,0.36516 z m -4.91672,5.43187 v 1.74107 q 0.18911,-0.24779 0.34561,-0.31952 0.16302,-0.0717 0.49558,-0.0587 -0.21518,-0.25431 -0.313,-0.37169 -0.0913,-0.12389 -0.23475,-0.35865 -0.13694,-0.24127 -0.29344,-0.63252 z m 0,-5.3797 q -0.11085,0.49559 -0.11085,0.80207 0,0.3456 0.11737,0.69773 0.11738,0.3456 0.34561,0.6586 0.22823,0.30648 0.51515,0.50211 0.38473,0.26083 0.84771,0.37169 0.46298,0.10433 1.34981,0.25431 0.89336,0.14346 1.23244,0.2804 0.62601,0.22823 0.97161,0.69773 0.35213,0.4695 0.35213,1.10202 0,0.4695 -0.26736,0.99117 0.53471,-0.55427 0.53471,-1.29765 0,-0.76946 -0.39777,-1.20636 -0.39125,-0.44341 -0.97813,-0.65208 -0.58035,-0.21519 -1.59109,-0.39125 -1.01073,-0.18259 -1.03681,-0.18911 -0.92596,-0.24127 -1.4085,-0.83467 -0.47603,-0.59339 -0.47603,-1.36937 0,-0.14346 -0.007,-0.24128 0,-0.0978 0.007,-0.17606 z m 13.21776,5.24929 2.84961,-6.97079 h 2.81701 v 0.35864 q -0.6586,0.007 -0.92596,0.16955 -0.26735,0.16302 -0.313,0.4695 -0.0456,0.30648 -0.0456,1.1281 v 5.63402 q 0,0.43037 0.11086,0.65208 0.11737,0.22171 0.37169,0.313 0.25431,0.0848 0.80206,0.11738 v 0.35865 h -4.20595 v -0.35865 q 0.626,-0.007 0.9064,-0.1565 0.2804,-0.14998 0.33256,-0.39777 0.0522,-0.25432 0.0522,-0.83467 v -6.29262 l -3.24086,8.04021 h -0.37821 l -3.20174,-7.7859 v 5.34058 q 0,0.89987 0.33909,1.4085 0.3456,0.50211 1.14115,0.67817 v 0.35865 h -3.29955 v -0.35865 q 0.69773,-0.0717 1.07594,-0.54123 0.3782,-0.47602 0.3782,-1.33025 v -6.05135 q -0.26735,-0.29344 -0.63904,-0.4369 -0.37169,-0.14346 -0.8151,-0.1239 v -0.35864 h 2.98002 z m 3.38432,0.72381 v -6.29262 q 0,-0.76946 0.11738,-1.04334 -0.26083,0.0196 -0.37169,0.14998 -0.11085,0.1239 -0.13694,0.35213 -0.0261,0.22171 -0.0261,0.71729 v 6.2861 q 0,0.4695 -0.0978,0.64557 -0.0913,0.16954 -0.38473,0.33256 h 0.22823 q 0.44993,0 0.56079,-0.25431 0.11085,-0.26084 0.11085,-0.89336 z m -8.01412,-7.33596 h -0.24127 q 0.40429,0.1565 0.63252,0.4369 0.23475,0.27388 0.47602,0.86075 l 3.01916,7.18598 q 0.14345,-0.26083 0.14345,-0.45646 0,-0.18258 -0.14345,-0.52167 l -2.5953,-6.29914 q -0.24127,-0.61948 -0.51515,-0.91292 -0.26735,-0.29344 -0.77598,-0.29344 z m -0.50863,8.48363 h 1.3759 q -0.23475,-0.1239 -0.38473,-0.33909 -0.14346,-0.2217 -0.21519,-0.51514 -0.0913,0.26735 -0.28691,0.47602 -0.18911,0.20215 -0.48907,0.37821 z m 14.67192,-4.19291 v 2.86918 q 0,0.47602 0.0652,0.74337 0.0717,0.26084 0.25431,0.39125 0.18258,0.1239 0.52167,0.1565 0.3456,0.0326 0.939,0.0326 0.71729,0 1.28461,-0.21519 0.57383,-0.22171 1.07594,-0.64556 0.50862,-0.43038 1.10854,-1.14115 h 0.52167 l -0.81511,2.36055 h -8.02716 v -0.35865 q 0.58035,-0.013 0.88031,-0.0978 0.30648,-0.0913 0.43038,-0.29344 0.13042,-0.20867 0.13042,-0.58688 v -6.44912 q 0,-0.45646 -0.11738,-0.66513 -0.11738,-0.20866 -0.39777,-0.28039 -0.2804,-0.0782 -0.92596,-0.11086 v -0.35864 h 7.70764 l 0.78902,2.08015 h -0.4695 q -0.37821,-0.47602 -0.92596,-0.86075 -0.54123,-0.39126 -1.2194,-0.62601 -0.67164,-0.23475 -1.42154,-0.23475 -0.5934,0 -0.89336,0.13042 -0.29996,0.1239 -0.39777,0.35213 -0.0978,0.22823 -0.0978,0.59991 v 2.8431 h 1.31069 q 1.71498,0 1.73454,-1.57153 h 0.45646 v 3.45605 h -0.40429 q -0.0782,-0.79554 -0.44994,-1.15419 -0.36516,-0.36517 -1.12158,-0.36517 z m 4.30376,4.19291 0.44994,-1.13463 q -0.38473,0.41734 -0.69773,0.626 -0.313,0.20215 -0.88684,0.50863 z m -1.33678,-3.76905 v -1.27809 q -0.25431,0.4369 -0.92596,0.63904 0.35865,0.0978 0.56732,0.23476 0.20866,0.13693 0.35864,0.40429 z m 1.05638,-4.71458 h -1.18027 q 0.48906,0.16302 0.86727,0.39125 0.37821,0.22823 0.80207,0.54776 z m -5.43839,1.10855 v 6.30566 q 0,0.47602 -0.11085,0.69773 -0.11086,0.22171 -0.33256,0.37169 0.54123,-0.007 0.69773,-0.2804 0.16302,-0.28039 0.16302,-0.89987 v -6.31219 q 0,-0.55427 -0.18911,-0.73033 -0.1891,-0.18259 -0.67164,-0.19563 0.24127,0.13042 0.33908,0.35213 0.10433,0.21519 0.10433,0.69121 z m 14.35891,-1.10855 v -0.35864 h 3.48866 v 0.35864 q -0.4369,0.0131 -0.76946,0.19563 -0.32605,0.18258 -0.51515,0.53471 -0.1891,0.3456 -0.1891,0.83467 l 0.12389,7.47941 h -0.40429 l -6.66431,-7.78589 0.0978,5.23624 q 0.013,0.48906 0.0782,0.82815 0.0652,0.33256 0.23475,0.58035 0.16955,0.2478 0.48255,0.39125 0.31952,0.14346 0.82162,0.18911 v 0.35865 h -3.46257 v -0.35865 q 0.67817,-0.0522 1.00421,-0.36517 0.33257,-0.313 0.41082,-0.77598 0.0782,-0.4695 0.0522,-1.17375 l -0.0913,-5.34058 q -0.37169,-0.40429 -0.72381,-0.61296 -0.35213,-0.21519 -0.73034,-0.21519 h -0.0782 v -0.35864 h 2.69311 l 5.87529,6.85341 -0.0913,-4.58416 q 0,-0.52819 -0.11086,-0.89335 -0.10433,-0.37169 -0.35864,-0.59992 -0.18259,-0.18259 -0.52819,-0.29996 -0.33909,-0.1239 -0.64557,-0.11738 z m 2.2823,0 h -1.42807 q 0.32605,0.11086 0.52819,0.30648 0.20867,0.19563 0.35213,0.53471 0.14998,-0.58035 0.54775,-0.84119 z m -1.02377,7.46638 -5.87529,-6.85342 q -0.18258,-0.23475 -0.4369,-0.42385 -0.24779,-0.18911 -0.70425,-0.18911 h -0.29344 q 0.36517,0.13042 0.56732,0.31953 0.20214,0.18258 0.56731,0.61948 l 6.69692,7.79893 q -0.007,-0.1891 -0.0196,-0.36517 -0.007,-0.18258 -0.0391,-0.26735 -0.0326,-0.0913 -0.1239,-0.22171 -0.0913,-0.13042 -0.33908,-0.41733 z m -7.13381,1.01725 h 1.3759 q -0.28692,-0.22171 -0.41082,-0.41081 -0.11737,-0.18911 -0.20214,-0.52819 -0.0848,0.30648 -0.26084,0.53471 -0.17606,0.22171 -0.5021,0.40429 z"
         id="path172" /></g></g></svg>
