<?xml version="1.0" encoding="UTF-8" standalone="no"?>
<!-- Created with Inkscape (http://www.inkscape.org/) -->

<svg
   width="48.051281mm"
   height="33.85107mm"
   viewBox="0 0 48.051283 33.851072"
   version="1.1"
   id="svg1"
   xml:space="preserve"
   xmlns="http://www.w3.org/2000/svg"
   xmlns:svg="http://www.w3.org/2000/svg"><defs
     id="defs1" /><g
     id="g95"
     style="display:inline"
     transform="translate(-30.901198,-111.88577)"><g
       id="g90"
       style="display:inline"
       transform="rotate(111.6056,54.828628,130.08256)"><rect
         style="display:inline;fill:#477a40;fill-opacity:1;stroke:none;stroke-width:0.236556"
         id="rect72"
         width="2.4758945"
         height="6.8116651"
         x="-75.981194"
         y="116.1396"
         transform="matrix(0.56407148,-0.82572596,0.8172728,0.57625096,0,0)" /><path
         style="display:inline;fill:none;stroke:#477a40;stroke-width:0.1;stroke-dasharray:none;stroke-opacity:1"
         d="m 31.565217,114.00705 9.748019,6.74852 m 0.734754,0.5317 10.165899,7.05669"
         id="path73" /><path
         style="baseline-shift:baseline;display:inline;overflow:visible;opacity:1;vector-effect:none;fill:#477a40;stroke-miterlimit:10;enable-background:accumulate;stop-color:#000000;stop-opacity:1"
         d="m 36.115234,111.92773 c -1.618617,0.1526 -3.208193,0.73112 -4.693359,1.89649 l -0.04297,0.0332 -0.02344,0.0488 c 0,0 -0.242068,0.5084 -0.371094,1.36523 -0.129026,0.85683 -0.152215,2.0796 0.259766,3.54883 0.823962,2.93847 3.387785,6.84643 10.248046,10.82227 l 0.134766,0.0762 L 41.75,129.625 c 0,0 2.097625,-1.59396 4.001953,-2.25195 l 0.308594,-0.10742 -0.201172,-0.25586 c -0.572874,-0.72782 -1.989573,-2.29379 -3.138672,-3.75196 -0.568321,-0.72119 -1.111248,-1.29121 -1.273437,-1.78125 -0.0763,-0.23046 0.0013,-0.37828 0.07617,-0.57812 0.150534,-0.13928 0.252729,-0.26099 0.486329,-0.26953 0.499817,-0.0183 1.214923,0.29125 2.074218,0.57226 1.736878,0.56803 3.761447,1.37542 4.498047,1.625 l 0.310547,0.10547 -0.0039,-0.32812 c -0.01009,-0.96557 0.189781,-2.4399 0.853515,-4.65235 l 0.04492,-0.15039 -0.123047,-0.0977 c -2.422117,-1.91381 -5.474726,-4.03774 -8.679687,-5.11524 -1.60248,-0.53875 -3.250523,-0.81275 -4.869141,-0.66016 z m 0.05273,0.45508 c 1.538009,-0.14326 3.110914,0.12105 4.667968,0.64453 3.071466,1.03263 6.041989,3.08244 8.429688,4.96094 -0.575699,1.97005 -0.767902,3.31944 -0.785156,4.30664 -0.791303,-0.28007 -2.590591,-0.99183 -4.251953,-1.53515 -0.829605,-0.27131 -1.551182,-0.6208 -2.236329,-0.59571 -0.429569,0.0157 -0.680943,0.28029 -0.833984,0.41797 l -0.04492,0.0391 -0.01953,0.0566 c -0.07063,0.19781 -0.225015,0.53114 -0.08789,0.94532 0.219249,0.66242 0.800511,1.22702 1.34961,1.92383 1.096562,1.39149 2.352993,2.78989 2.957031,3.5332 -1.81411,0.70466 -3.511846,1.93211 -3.707031,2.08008 -6.683685,-3.90601 -9.13415,-7.68347 -9.914063,-10.46485 -0.39266,-1.40033 -0.366701,-2.55454 -0.246094,-3.35547 0.115636,-0.76791 0.300345,-1.14758 0.316407,-1.18164 1.402625,-1.08558 2.88691,-1.63386 4.40625,-1.77539 z m 5.923828,8.6211 c -0.04601,0.006 -0.106908,0.0142 -0.169598,0.0593 -0.02819,0.0203 -0.05983,0.0457 -0.08313,0.0875 -0.01926,0.0397 -0.03255,0.0692 -0.04219,0.10314 -0.02097,0.0737 -0.01213,0.12586 -0.002,0.17187 0.02035,0.092 0.0586,0.16969 0.109375,0.26172 0.101558,0.18406 0.260139,0.41496 0.46289,0.6875 0.405504,0.54509 0.983884,1.24687 1.576172,1.94531 1.184577,1.39689 2.425782,2.77344 2.425782,2.77344 l 0.07422,0.082 0.109375,-0.006 c 0.394259,-0.0192 0.702954,0.0106 0.994141,0.0977 1.414111,0.42276 2.592746,1.56538 3.943359,2.4082 l 0.189453,0.11914 0.84961,-1.24414 0.916015,-1.33789 -0.183593,-0.13281 c -1.284854,-0.91856 -2.591428,-1.79932 -3.857422,-2.72656 -0.09316,-0.0682 -0.302312,-0.26777 -0.417969,-0.85352 l -0.02539,-0.12305 -0.115234,-0.0469 c 0,0 -1.684817,-0.68314 -3.369141,-1.3086 -0.842161,-0.31272 -1.684734,-0.61034 -2.322265,-0.80273 -0.318766,-0.0962 -0.583983,-0.16644 -0.78711,-0.19922 -0.101563,-0.0164 -0.183362,-0.0271 -0.27539,-0.0156 z m 0.234375,0.48242 c 0.16191,0.0282 0.400076,0.0867 0.695312,0.17578 0.618554,0.18667 1.455235,0.48384 2.292969,0.79492 1.644077,0.61051 3.231763,1.25447 3.292969,1.2793 0.145411,0.51168 0.357515,0.87209 0.521484,0.99219 1.214391,0.88944 2.456578,1.7325 3.675781,2.59961 l -0.658203,0.96093 -0.591797,0.86524 c -1.22233,-0.79915 -2.383948,-1.88881 -3.873046,-2.33399 -0.311699,-0.0932 -0.652425,-0.10924 -1.021485,-0.10156 -0.0541,-0.06 -1.211602,-1.34113 -2.363281,-2.69922 -0.589169,-0.69476 -1.1632,-1.393 -1.556641,-1.92187 -0.189491,-0.25472 -0.331377,-0.46511 -0.414062,-0.61133 z"
         id="path74" /><path
         id="path75"
         style="display:inline;fill:#477a40;fill-opacity:1;stroke:none;stroke-width:0.1;stroke-dasharray:none"
         d="m 59.419112,131.56561 -1.585433,2.36627 c 1.181856,0.86669 3.803722,2.16756 4.319633,4.05143 0.738537,2.69681 2.207077,5.70935 5.286499,5.51594 0,0 -1.28192,-0.40911 -2.255676,-1.65364 -0.768511,-0.98221 -1.406724,-2.75238 -0.82889,-3.41892 0,0 1.257347,-0.31937 1.805058,0.42427 0.38155,0.51804 0.361847,1.64598 0.737939,2.45204 0.463507,0.9934 1.334899,1.64463 2.271179,2.13682 1.431357,0.75244 3.514092,0.25315 4.720642,0.43254 1.105065,0.16431 1.789942,1.30516 1.866553,1.86448 0,0 0.18545,-1.00515 -1.14825,-2.08928 -1.07088,-0.87049 -2.034897,-0.5189 -3.673161,-1.05161 -0.89781,-0.29193 -1.501007,-0.85636 -1.191658,-2.26395 0,0 0.277526,-0.39226 0.697115,-0.42323 0.702872,-0.0519 1.768341,0.46551 2.374015,2.04277 0,0 0.680321,-2.69934 -3.511414,-4.09846 -0.354925,-0.11847 -1.688154,-0.34921 -1.278991,-1.32808 0.289986,-0.57499 3.329968,-0.63286 4.218347,1.85363 -0.177678,-2.24306 -3.078973,-3.70538 -5.393986,-3.46955 -3.072,0.31294 -5.110298,-1.72286 -7.429521,-3.34347 z m 0.136943,1.59422 a 0.36400166,0.36400166 0 0 1 0.363802,0.3638 0.36400166,0.36400166 0 0 1 -0.363802,0.3638 0.36400166,0.36400166 0 0 1 -0.363802,-0.3638 0.36400166,0.36400166 0 0 1 0.363802,-0.3638 z" /><path
         style="fill:#477a40;fill-opacity:1;stroke:none;stroke-width:0.0106008;stroke-opacity:1"
         d="m 41.360413,129.0912 c -4.775953,-2.84102 -7.918391,-5.94888 -9.300982,-9.19862 -0.763767,-1.79522 -0.961054,-3.633 -0.562234,-5.23741 0.05302,-0.2133 0.164336,-0.5412 0.181491,-0.53462 0.0079,0.003 2.134989,1.47484 4.726926,3.27072 2.591936,1.79585 4.713938,3.26608 4.715564,3.26715 0.0016,10e-4 0.007,0.12803 -0.01954,0.20237 -0.07062,0.19754 -0.05614,0.30989 -0.05644,0.47405 -8.01e-4,0.45154 0.196513,0.72608 0.955843,1.64464 0.121205,0.14662 0.389393,0.44627 0.535061,0.62852 0.586295,0.73357 0.948454,1.11617 2.007576,2.35634 0.894795,1.04776 0.89277,1.11443 0.882292,1.12426 -0.0048,0.005 -0.15738,0.0678 -0.245886,0.10364 -0.930648,0.37717 -2.22383,1.1165 -3.316255,1.89595 -0.116678,0.0832 -0.217865,0.15356 -0.22486,0.15625 -0.0069,0.003 -0.132349,-0.0663 -0.278562,-0.15326 z"
         id="path76" /><path
         style="fill:#477a40;fill-opacity:1;stroke:none;stroke-width:0.0109032;stroke-opacity:1"
         d="m 51.597139,129.28219 c -0.279016,-0.19151 -0.555297,-0.34019 -0.957496,-0.63392 -0.716621,-0.52338 -0.975787,-0.72731 -1.304093,-0.93582 -0.703192,-0.44665 -1.39443,-0.76931 -1.928951,-0.87749 -0.220277,-0.0447 -0.295593,-0.0457 -0.566789,-0.0543 l -0.286808,-0.0179 -0.437221,-0.52344 c -1.456759,-1.744 -2.782632,-3.2592 -3.454527,-4.14555 -0.238718,-0.3149 -0.444104,-0.66624 -0.434189,-0.67621 0.0082,-0.008 10.048079,6.9952 10.044832,7.00685 -0.0051,0.0185 -0.61045,0.90471 -0.61972,0.90737 -0.0044,0.001 -0.06706,-0.0632 -0.107104,-0.0907 z"
         id="path89" /></g><g
       id="g94"
       style="display:inline"><rect
         style="display:inline;fill:#477a40;fill-opacity:1;stroke:none;stroke-width:0.236556"
         id="rect90"
         width="2.4758945"
         height="6.8116651"
         x="-75.981194"
         y="116.1396"
         transform="matrix(0.56407148,-0.82572596,0.8172728,0.57625096,0,0)" /><path
         style="display:inline;fill:none;fill-opacity:1;stroke:#477a40;stroke-width:0.1;stroke-dasharray:none;stroke-opacity:1"
         d="m 31.565217,114.00705 9.748019,6.74852 m 0.734754,0.5317 10.165899,7.05669"
         id="path90" /><path
         style="baseline-shift:baseline;display:inline;overflow:visible;opacity:1;vector-effect:none;fill:#477a40;stroke-miterlimit:10;enable-background:accumulate;stop-color:#000000;stop-opacity:1"
         d="m 36.115234,111.92773 c -1.618617,0.1526 -3.208193,0.73112 -4.693359,1.89649 l -0.04297,0.0332 -0.02344,0.0488 c 0,0 -0.242068,0.5084 -0.371094,1.36523 -0.129026,0.85683 -0.152215,2.0796 0.259766,3.54883 0.823962,2.93847 3.387785,6.84643 10.248046,10.82227 l 0.134766,0.0762 L 41.75,129.625 c 0,0 2.097625,-1.59396 4.001953,-2.25195 l 0.308594,-0.10742 -0.201172,-0.25586 c -0.572874,-0.72782 -1.989573,-2.29379 -3.138672,-3.75196 -0.568321,-0.72119 -1.111248,-1.29121 -1.273437,-1.78125 -0.0763,-0.23046 0.0013,-0.37828 0.07617,-0.57812 0.150534,-0.13928 0.252729,-0.26099 0.486329,-0.26953 0.499817,-0.0183 1.214923,0.29125 2.074218,0.57226 1.736878,0.56803 3.761447,1.37542 4.498047,1.625 l 0.310547,0.10547 -0.0039,-0.32812 c -0.01009,-0.96557 0.189781,-2.4399 0.853515,-4.65235 l 0.04492,-0.15039 -0.123047,-0.0977 c -2.422117,-1.91381 -5.474726,-4.03774 -8.679687,-5.11524 -1.60248,-0.53875 -3.250523,-0.81275 -4.869141,-0.66016 z m 0.05273,0.45508 c 1.538009,-0.14326 3.110914,0.12105 4.667968,0.64453 3.071466,1.03263 6.041989,3.08244 8.429688,4.96094 -0.575699,1.97005 -0.767902,3.31944 -0.785156,4.30664 -0.791303,-0.28007 -2.590591,-0.99183 -4.251953,-1.53515 -0.829605,-0.27131 -1.551182,-0.6208 -2.236329,-0.59571 -0.429569,0.0157 -0.680943,0.28029 -0.833984,0.41797 l -0.04492,0.0391 -0.01953,0.0566 c -0.07063,0.19781 -0.225015,0.53114 -0.08789,0.94532 0.219249,0.66242 0.800511,1.22702 1.34961,1.92383 1.096562,1.39149 2.352993,2.78989 2.957031,3.5332 -1.81411,0.70466 -3.511846,1.93211 -3.707031,2.08008 -6.683685,-3.90601 -9.13415,-7.68347 -9.914063,-10.46485 -0.39266,-1.40033 -0.366701,-2.55454 -0.246094,-3.35547 0.115636,-0.76791 0.300345,-1.14758 0.316407,-1.18164 1.402625,-1.08558 2.88691,-1.63386 4.40625,-1.77539 z m 5.923828,8.6211 c -0.04601,0.006 -0.09942,0.0135 -0.16211,0.0586 -0.02819,0.0203 -0.05227,0.0345 -0.08293,0.0763 -0.03576,0.0513 -0.04024,0.0812 -0.04988,0.11513 -0.02097,0.0737 -0.01213,0.12586 -0.002,0.17187 0.02035,0.092 0.0586,0.16969 0.109375,0.26172 0.101558,0.18406 0.260139,0.41496 0.46289,0.6875 0.405504,0.54509 0.983884,1.24687 1.576172,1.94531 1.184577,1.39689 2.425782,2.77344 2.425782,2.77344 l 0.07422,0.082 0.109375,-0.006 c 0.394259,-0.0192 0.702954,0.0106 0.994141,0.0977 1.414111,0.42276 2.592746,1.56538 3.943359,2.4082 l 0.189453,0.11914 0.84961,-1.24414 0.916015,-1.33789 -0.183593,-0.13281 c -1.284854,-0.91856 -2.591428,-1.79932 -3.857422,-2.72656 -0.09316,-0.0682 -0.302312,-0.26777 -0.417969,-0.85352 l -0.02539,-0.12305 -0.115234,-0.0469 c 0,0 -1.684817,-0.68314 -3.369141,-1.3086 -0.842161,-0.31272 -1.684734,-0.61034 -2.322265,-0.80273 -0.318766,-0.0962 -0.583983,-0.16644 -0.78711,-0.19922 -0.101563,-0.0164 -0.183362,-0.0271 -0.27539,-0.0156 z m 0.234375,0.48242 c 0.16191,0.0282 0.400076,0.0867 0.695312,0.17578 0.618554,0.18667 1.455235,0.48384 2.292969,0.79492 1.644077,0.61051 3.231763,1.25447 3.292969,1.2793 0.145411,0.51168 0.357515,0.87209 0.521484,0.99219 1.214391,0.88944 2.456578,1.7325 3.675781,2.59961 l -0.658203,0.96093 -0.591797,0.86524 c -1.22233,-0.79915 -2.383948,-1.88881 -3.873046,-2.33399 -0.311699,-0.0932 -0.652425,-0.10924 -1.021485,-0.10156 -0.0541,-0.06 -1.211602,-1.34113 -2.363281,-2.69922 -0.589169,-0.69476 -1.1632,-1.393 -1.556641,-1.92187 -0.189491,-0.25472 -0.331377,-0.46511 -0.414062,-0.61133 z"
         id="path91" /><path
         id="path92"
         style="display:inline;fill:#477a40;fill-opacity:1;stroke:none;stroke-width:0.1;stroke-dasharray:none"
         d="m 59.419112,131.56561 -1.585433,2.36627 c 1.181856,0.86669 3.803722,2.16756 4.319633,4.05143 0.738537,2.69681 2.207077,5.70935 5.286499,5.51594 0,0 -1.28192,-0.40911 -2.255676,-1.65364 -0.768511,-0.98221 -1.406724,-2.75238 -0.82889,-3.41892 0,0 1.257347,-0.31937 1.805058,0.42427 0.38155,0.51804 0.361847,1.64598 0.737939,2.45204 0.463507,0.9934 1.334899,1.64463 2.271179,2.13682 1.431357,0.75244 3.514092,0.25315 4.720642,0.43254 1.105065,0.16431 1.789942,1.30516 1.866553,1.86448 0,0 0.18545,-1.00515 -1.14825,-2.08928 -1.07088,-0.87049 -2.034897,-0.5189 -3.673161,-1.05161 -0.89781,-0.29193 -1.501007,-0.85636 -1.191658,-2.26395 0,0 0.277526,-0.39226 0.697115,-0.42323 0.702872,-0.0519 1.768341,0.46551 2.374015,2.04277 0,0 0.680321,-2.69934 -3.511414,-4.09846 -0.354925,-0.11847 -1.688154,-0.34921 -1.278991,-1.32808 0.289986,-0.57499 3.329968,-0.63286 4.218347,1.85363 -0.177678,-2.24306 -3.078973,-3.70538 -5.393986,-3.46955 -3.072,0.31294 -5.110298,-1.72286 -7.429521,-3.34347 z m 0.136943,1.59422 a 0.36400166,0.36400166 0 0 1 0.363802,0.3638 0.36400166,0.36400166 0 0 1 -0.363802,0.3638 0.36400166,0.36400166 0 0 1 -0.363802,-0.3638 0.36400166,0.36400166 0 0 1 0.363802,-0.3638 z" /><path
         style="display:inline;opacity:1;fill:#477a40;fill-opacity:1;stroke:none;stroke-width:0.0106008;stroke-opacity:1"
         d="m 41.360413,129.0912 c -4.775953,-2.84102 -7.918391,-5.94888 -9.300982,-9.19862 -0.763767,-1.79522 -0.961054,-3.633 -0.562234,-5.23741 0.05302,-0.2133 0.164336,-0.5412 0.181491,-0.53462 0.0079,0.003 2.134989,1.47484 4.726926,3.27072 2.591936,1.79585 4.713938,3.26608 4.715564,3.26715 0.0016,10e-4 -0.01879,0.0628 -0.04537,0.13714 -0.07062,0.19754 -0.04345,0.31194 -0.04375,0.4761 -8.01e-4,0.45154 0.189058,0.73851 0.948388,1.65707 0.121205,0.14662 0.422239,0.48185 0.567907,0.6641 0.586295,0.73357 0.939628,1.14086 1.99875,2.38103 0.894795,1.04776 0.912468,1.13505 0.90199,1.14488 -0.0048,0.005 -0.180499,0.0377 -0.269005,0.0735 -0.930648,0.37717 -2.22383,1.1165 -3.316255,1.89595 -0.116678,0.0832 -0.217865,0.15356 -0.22486,0.15625 -0.0069,0.003 -0.132349,-0.0663 -0.278562,-0.15326 z"
         id="path93" /><path
         style="display:inline;fill:#477a40;fill-opacity:1;stroke:none;stroke-width:0.0109032;stroke-opacity:1"
         d="m 51.560012,129.26523 c -0.279016,-0.19151 -0.528761,-0.32259 -0.93096,-0.61632 -0.716621,-0.52338 -1.023196,-0.70185 -1.351502,-0.91036 -0.703192,-0.44665 -1.27045,-0.77026 -1.804971,-0.87844 -0.220277,-0.0447 -0.340442,-0.0667 -0.611638,-0.0753 l -0.363855,-0.0304 -0.479504,-0.51302 c -1.551658,-1.66014 -2.695328,-3.19497 -3.367223,-4.08132 -0.238718,-0.3149 -0.433209,-0.73255 -0.423294,-0.74252 0.0082,-0.008 10.046005,6.99958 10.042758,7.01123 -0.0051,0.0185 -0.60286,0.90673 -0.61213,0.90939 -0.0044,0.001 -0.04524,-0.0408 -0.08528,-0.0683 z"
         id="path94" /></g><text
       xml:space="preserve"
       style="font-style:normal;font-variant:normal;font-weight:normal;font-stretch:normal;font-size:5.39144px;font-family:'Imprint MT Shadow';-inkscape-font-specification:'Imprint MT Shadow, Normal';font-variant-ligatures:normal;font-variant-caps:normal;font-variant-numeric:normal;font-variant-east-asian:normal;writing-mode:lr-tb;direction:ltr;display:inline;fill:#ffffff;stroke-width:0.0956798"
       x="-81.405609"
       y="100.46031"
       id="text119"
       transform="rotate(-55.769943)"><tspan
         id="tspan119"
         style="font-style:normal;font-variant:normal;font-weight:normal;font-stretch:normal;font-size:5.39144px;font-family:'Imprint MT Shadow';-inkscape-font-specification:'Imprint MT Shadow, Normal';font-variant-ligatures:normal;font-variant-caps:normal;font-variant-numeric:normal;font-variant-east-asian:normal;fill:#ffffff;fill-opacity:1;stroke-width:0.0956798"
         x="-81.405609"
         y="100.46031">L</tspan></text><text
       xml:space="preserve"
       style="font-style:normal;font-variant:normal;font-weight:normal;font-stretch:normal;font-size:5.39144px;font-family:'Imprint MT Shadow';-inkscape-font-specification:'Imprint MT Shadow, Normal';font-variant-ligatures:normal;font-variant-caps:normal;font-variant-numeric:normal;font-variant-east-asian:normal;writing-mode:lr-tb;direction:ltr;display:inline;fill:#ffffff;stroke-width:0.0956798"
       x="133.56927"
       y="9.615304"
       id="text120"
       transform="rotate(56.23091)"><tspan
         id="tspan120"
         style="font-style:normal;font-variant:normal;font-weight:normal;font-stretch:normal;font-size:5.39144px;font-family:'Imprint MT Shadow';-inkscape-font-specification:'Imprint MT Shadow, Normal';font-variant-ligatures:normal;font-variant-caps:normal;font-variant-numeric:normal;font-variant-east-asian:normal;fill:#ffffff;fill-opacity:1;stroke-width:0.0956798"
         x="133.56927"
         y="9.615304">C</tspan></text></g></svg>
